<svg width="50" height="50" viewBox="0 0 50 50" fill="none" xmlns="http://www.w3.org/2000/svg">
<path d="M47.2222 27.7778C48.75 27.7778 50 26.5278 50 25C50 23.4722 48.75 22.2222 47.2222 22.2222H44.4444V5.55556H47.2222C48.75 5.55556 50 4.30556 50 2.77778C50 1.25 48.75 0 47.2222 0H2.77778C1.25 0 0 1.25 0 2.77778C0 4.30556 1.25 5.55556 2.77778 5.55556H5.55556V22.2222H2.77778C1.25 22.2222 0 23.4722 0 25C0 26.5278 1.25 27.7778 2.77778 27.7778H5.55556V44.4444H2.77778C1.25 44.4444 0 45.6944 0 47.2222C0 48.75 1.25 50 2.77778 50H47.2222C48.75 50 50 48.75 50 47.2222C50 45.6944 48.75 44.4444 47.2222 44.4444H44.4444V27.7778H47.2222ZM25 36.1111C20.3889 36.1111 16.6667 32.4444 16.6667 27.9167C16.6667 24.3056 18.0556 23.2778 25 15.2778C31.8611 23.2222 33.3333 24.2778 33.3333 27.9167C33.3333 32.4444 29.6111 36.1111 25 36.1111Z" fill="white"/>
</svg>
