<svg width="55" height="55" viewBox="0 0 55 55" fill="none" xmlns="http://www.w3.org/2000/svg">
<path d="M27.5 0C12.3365 0 0 12.3365 0 27.5C0 42.6635 12.3365 55 27.5 55C42.6635 55 55 42.6635 55 27.5C55 12.3365 42.6635 0 27.5 0ZM5.5 27.5C5.5 25.0278 5.929 22.6545 6.68525 20.4352L11 24.75L16.5 30.25V35.75L22 41.25L24.75 44V49.3102C13.9178 47.949 5.5 38.698 5.5 27.5ZM44.9075 40.9007C43.1118 39.4543 40.3893 38.5 38.5 38.5V35.75C38.5 34.2913 37.9205 32.8924 36.8891 31.8609C35.8576 30.8295 34.4587 30.25 33 30.25H22V22C23.4587 22 24.8576 21.4205 25.8891 20.3891C26.9205 19.3576 27.5 17.9587 27.5 16.5V13.75H30.25C31.7087 13.75 33.1076 13.1705 34.1391 12.1391C35.1705 11.1076 35.75 9.70869 35.75 8.25V7.11975C43.802 10.3895 49.5 18.2875 49.5 27.5C49.4995 32.3529 47.8837 37.0676 44.9075 40.9007Z" fill="white"/>
</svg>
