<svg width="54" height="51" viewBox="0 0 54 51" fill="none" xmlns="http://www.w3.org/2000/svg">
<path fill-rule="evenodd" clip-rule="evenodd" d="M18.9261 2.65882C18.9261 1.95366 19.2104 1.27738 19.7164 0.77875C20.2224 0.280125 20.9086 0 21.6242 0H32.4166C33.1322 0 33.8185 0.280125 34.3245 0.77875C34.8305 1.27738 35.1148 1.95366 35.1148 2.65882V7.97646H43.2091C43.6072 7.97662 44.0004 8.0636 44.3604 8.23118C44.7204 8.39876 45.0383 8.64277 45.2913 8.94571C45.5443 9.24866 45.7262 9.60303 45.8238 9.98341C45.9214 10.3638 45.9324 10.7607 45.8559 11.1458L44.6768 17.0962L41.0965 16.3119L27.6059 13.3579C27.2203 13.2734 26.8206 13.2734 26.4349 13.3579L12.9444 16.3092L9.36402 17.0962L8.18494 11.1458C8.1085 10.7607 8.11948 10.3638 8.21709 9.98341C8.31471 9.60303 8.49654 9.24866 8.74955 8.94571C9.00255 8.64277 9.32046 8.39876 9.68046 8.23118C10.0405 8.0636 10.4336 7.97662 10.8318 7.97646H18.9261V2.65882ZM2.48924 23.9188L2.15198 23.9932C1.75198 24.0811 1.37755 24.2576 1.0571 24.5093C0.736651 24.761 0.478604 25.0814 0.302543 25.4461C0.126482 25.8107 0.0370343 26.2102 0.0409871 26.614C0.0449399 27.0178 0.14219 27.4154 0.325356 27.7767L5.72157 38.412C5.97459 38.9108 6.38037 39.3186 6.88152 39.5777C7.38267 39.8368 7.9538 39.9341 8.51411 39.8557L27.0204 37.2501L45.5267 39.8557C46.0871 39.9341 46.6582 39.8368 47.1593 39.5777C47.6605 39.3186 48.0663 38.9108 48.3193 38.412L53.7155 27.7767C53.8987 27.4154 53.9959 27.0178 53.9999 26.614C54.0038 26.2102 53.9144 25.8107 53.7383 25.4461C53.5623 25.0814 53.3042 24.761 52.9838 24.5093C52.6633 24.2576 52.2889 24.0811 51.8889 23.9932L51.5516 23.9188C51.2726 23.9438 50.9913 23.9258 50.7179 23.8656L39.9255 21.5019L27.0204 18.6756L14.1154 21.5019L3.32295 23.8682C3.04939 23.9276 2.76812 23.9447 2.48924 23.9188ZM19.6492 44.1497C20.5687 43.1142 21.7022 42.2844 22.9738 41.7159C24.2453 41.1473 25.6255 40.8532 27.0218 40.8532C28.4181 40.8532 29.7983 41.1473 31.0698 41.7159C32.3413 42.2844 33.4748 43.1142 34.3944 44.1497L34.4888 44.2561C35.1655 45.0189 36.1005 45.5132 37.1197 45.6467C38.1389 45.7803 39.1726 45.544 40.028 44.9819C41.3277 44.1285 42.8186 43.5993 44.3721 43.4399C45.9255 43.2806 47.495 43.4959 48.9453 44.0673L52.3044 45.3887C52.9579 45.6578 53.4778 46.1694 53.7519 46.8129C54.026 47.4564 54.0323 48.1804 53.7695 48.8285C53.5068 49.4766 52.9959 49.9969 52.3472 50.2771C51.6986 50.5573 50.9641 50.5749 50.3024 50.3262L46.9433 49.0021C46.3051 48.7508 45.6145 48.6563 44.9311 48.7267C44.2476 48.7971 43.5918 49.0303 43.0202 49.4062C41.0756 50.6835 38.726 51.2206 36.4093 50.9173C34.0927 50.614 31.9669 49.4911 30.4281 47.7577L30.3337 47.6514C29.9207 47.1857 29.4113 46.8125 28.8399 46.5568C28.2684 46.3011 27.648 46.1688 27.0204 46.1688C26.3928 46.1688 25.7725 46.3011 25.201 46.5568C24.6295 46.8125 24.1202 47.1857 23.7072 47.6514L23.6127 47.7577C22.074 49.4911 19.9482 50.614 17.6315 50.9173C15.3148 51.2206 12.9653 50.6835 11.0207 49.4062C10.4491 49.0303 9.79324 48.7971 9.10978 48.7267C8.42632 48.6563 7.73574 48.7508 7.09761 49.0021L3.73846 50.3262C3.40825 50.4621 3.05388 50.532 2.696 50.5318C2.33811 50.5315 1.98385 50.461 1.65386 50.3245C1.32386 50.1881 1.02472 49.9882 0.773851 49.7367C0.522982 49.4852 0.325398 49.187 0.192605 48.8595C0.0598128 48.532 -0.00553487 48.1817 0.000366916 47.8291C0.0062687 47.4765 0.0833024 47.1285 0.226982 46.8055C0.370662 46.4825 0.578116 46.1909 0.837266 45.9477C1.09642 45.7044 1.40208 45.5144 1.73647 45.3887L5.09561 44.0673C6.54585 43.4959 8.11533 43.2806 9.6688 43.4399C11.2223 43.5993 12.7131 44.1285 14.0129 44.9819C14.8683 45.544 15.902 45.7803 16.9211 45.6467C17.9403 45.5132 18.8754 45.0189 19.5521 44.2561L19.6492 44.1497Z" fill="white"/>
</svg>
